<?xml version='1.0' encoding='UTF-8' standalone='no'?>
<svg viewBox="0 0 419 314" width="419pt" xmlns="http://www.w3.org/2000/svg" xmlns:xlink="http://www.w3.org/1999/xlink" height="314pt">
 <title>Figure 1</title>
 <desc>
Creator: GL2PS 1.4.2, (C) 1999-2020 C. Geuzaine
For: Octave
CreationDate: Sun Jan  1 20:25:01 2023
</desc>
 <defs/>
 <polygon fill="#ffffff" points="0,0 419,0 419,314 0,314"/>
 <g>
  <polygon fill="#ffffff" shape-rendering="crispEdges" points="0,314 419,314 419,0 0,0"/>
  <clipPath id="cp00419314">
   <polygon points="0,314 419,314 419,0 0,0"/>
  </clipPath>
  <g clip-path="url(#cp00419314)">
   <polygon fill="#ffffff" shape-rendering="crispEdges" points="54.5283,271.07 379.601,271.07 379.601,23.5939 54.5283,23.5939"/>
   <polyline fill="none" stroke-linejoin="miter" stroke-opacity="0.15" stroke-dasharray="48,0" stroke-width="3" stroke="#262626" points="54.5283,271.07 54.5283,23.5939" stroke-linecap="butt"/>
   <polyline fill="none" stroke-linejoin="miter" stroke-opacity="0.15" stroke-dasharray="48,0" stroke-width="3" stroke="#262626" points="119.543,271.07 119.543,23.5939" stroke-linecap="butt"/>
   <polyline fill="none" stroke-linejoin="miter" stroke-opacity="0.15" stroke-dasharray="48,0" stroke-width="3" stroke="#262626" points="184.557,271.07 184.557,23.5939" stroke-linecap="butt"/>
   <polyline fill="none" stroke-linejoin="miter" stroke-opacity="0.15" stroke-dasharray="48,0" stroke-width="3" stroke="#262626" points="249.572,271.07 249.572,23.5939" stroke-linecap="butt"/>
   <polyline fill="none" stroke-linejoin="miter" stroke-opacity="0.15" stroke-dasharray="48,0" stroke-width="3" stroke="#262626" points="314.586,271.07 314.586,23.5939" stroke-linecap="butt"/>
   <polyline fill="none" stroke-linejoin="miter" stroke-opacity="0.15" stroke-dasharray="48,0" stroke-width="3" stroke="#262626" points="379.601,271.07 379.601,23.5939" stroke-linecap="butt"/>
   <polyline fill="none" stroke-linejoin="miter" stroke-width="3" stroke="#262626" points="54.5283,271.07 54.5283,267.813" stroke-linecap="butt"/>
   <polyline fill="none" stroke-linejoin="miter" stroke-width="3" stroke="#262626" points="54.5283,23.5939 54.5283,26.8509" stroke-linecap="butt"/>
   <polyline fill="none" stroke-linejoin="miter" stroke-width="3" stroke="#262626" points="119.543,271.07 119.543,267.813" stroke-linecap="butt"/>
   <polyline fill="none" stroke-linejoin="miter" stroke-width="3" stroke="#262626" points="119.543,23.5939 119.543,26.8509" stroke-linecap="butt"/>
   <polyline fill="none" stroke-linejoin="miter" stroke-width="3" stroke="#262626" points="184.557,271.07 184.557,267.813" stroke-linecap="butt"/>
   <polyline fill="none" stroke-linejoin="miter" stroke-width="3" stroke="#262626" points="184.557,23.5939 184.557,26.8509" stroke-linecap="butt"/>
   <polyline fill="none" stroke-linejoin="miter" stroke-width="3" stroke="#262626" points="249.572,271.07 249.572,267.813" stroke-linecap="butt"/>
   <polyline fill="none" stroke-linejoin="miter" stroke-width="3" stroke="#262626" points="249.572,23.5939 249.572,26.8509" stroke-linecap="butt"/>
   <polyline fill="none" stroke-linejoin="miter" stroke-width="3" stroke="#262626" points="314.586,271.07 314.586,267.813" stroke-linecap="butt"/>
   <polyline fill="none" stroke-linejoin="miter" stroke-width="3" stroke="#262626" points="314.586,23.5939 314.586,26.8509" stroke-linecap="butt"/>
   <polyline fill="none" stroke-linejoin="miter" stroke-width="3" stroke="#262626" points="379.601,271.07 379.601,267.813" stroke-linecap="butt"/>
   <polyline fill="none" stroke-linejoin="miter" stroke-width="3" stroke="#262626" points="379.601,23.5939 379.601,26.8509" stroke-linecap="butt"/>
   <g transform="translate(50.5283,292.59) rotate(-0,4,-11)" font-weight="normal" font-family="FreeSans" font-size="14" font-style="normal" xml:space="preserve">
    <text fill="rgb(38,38,38)" y="-0" x="0 ">0</text>
   </g>
   <g transform="translate(111.543,292.59) rotate(-0,8,-11)" font-weight="normal" font-family="FreeSans" font-size="14" font-style="normal" xml:space="preserve">
    <text fill="rgb(38,38,38)" y="-0" x="0 8 ">20</text>
   </g>
   <g transform="translate(176.557,292.59) rotate(-0,8,-11)" font-weight="normal" font-family="FreeSans" font-size="14" font-style="normal" xml:space="preserve">
    <text fill="rgb(38,38,38)" y="-0" x="0 8 ">40</text>
   </g>
   <g transform="translate(241.572,292.59) rotate(-0,8,-11)" font-weight="normal" font-family="FreeSans" font-size="14" font-style="normal" xml:space="preserve">
    <text fill="rgb(38,38,38)" y="-0" x="0 8 ">60</text>
   </g>
   <g transform="translate(306.586,292.59) rotate(-0,8,-11)" font-weight="normal" font-family="FreeSans" font-size="14" font-style="normal" xml:space="preserve">
    <text fill="rgb(38,38,38)" y="-0" x="0 8 ">80</text>
   </g>
   <g transform="translate(367.601,292.59) rotate(-0,12,-11)" font-weight="normal" font-family="FreeSans" font-size="14" font-style="normal" xml:space="preserve">
    <text fill="rgb(38,38,38)" y="-0" x="0 8 16 ">100</text>
   </g>
   <polyline fill="none" stroke-linejoin="miter" stroke-opacity="0.15" stroke-dasharray="48,0" stroke-width="3" stroke="#262626" points="54.5283,271.07 379.601,271.07" stroke-linecap="butt"/>
   <polyline fill="none" stroke-linejoin="miter" stroke-opacity="0.15" stroke-dasharray="48,0" stroke-width="3" stroke="#262626" points="54.5283,221.575 379.601,221.575" stroke-linecap="butt"/>
   <polyline fill="none" stroke-linejoin="miter" stroke-opacity="0.15" stroke-dasharray="48,0" stroke-width="3" stroke="#262626" points="54.5283,172.08 379.601,172.08" stroke-linecap="butt"/>
   <polyline fill="none" stroke-linejoin="miter" stroke-opacity="0.15" stroke-dasharray="48,0" stroke-width="3" stroke="#262626" points="54.5283,122.584 379.601,122.584" stroke-linecap="butt"/>
   <polyline fill="none" stroke-linejoin="miter" stroke-opacity="0.15" stroke-dasharray="48,0" stroke-width="3" stroke="#262626" points="54.5283,73.0892 379.601,73.0892" stroke-linecap="butt"/>
   <polyline fill="none" stroke-linejoin="miter" stroke-opacity="0.15" stroke-dasharray="48,0" stroke-width="3" stroke="#262626" points="54.5283,23.5939 379.601,23.5939" stroke-linecap="butt"/>
   <polyline fill="none" stroke-linejoin="miter" stroke-width="3" stroke="#262626" points="54.5283,271.07 57.7797,271.07" stroke-linecap="butt"/>
   <polyline fill="none" stroke-linejoin="miter" stroke-width="3" stroke="#262626" points="379.601,271.07 376.349,271.07" stroke-linecap="butt"/>
   <polyline fill="none" stroke-linejoin="miter" stroke-width="3" stroke="#262626" points="54.5283,221.575 57.7797,221.575" stroke-linecap="butt"/>
   <polyline fill="none" stroke-linejoin="miter" stroke-width="3" stroke="#262626" points="379.601,221.575 376.349,221.575" stroke-linecap="butt"/>
   <polyline fill="none" stroke-linejoin="miter" stroke-width="3" stroke="#262626" points="54.5283,172.08 57.7797,172.08" stroke-linecap="butt"/>
   <polyline fill="none" stroke-linejoin="miter" stroke-width="3" stroke="#262626" points="379.601,172.08 376.349,172.08" stroke-linecap="butt"/>
   <polyline fill="none" stroke-linejoin="miter" stroke-width="3" stroke="#262626" points="54.5283,122.584 57.7797,122.584" stroke-linecap="butt"/>
   <polyline fill="none" stroke-linejoin="miter" stroke-width="3" stroke="#262626" points="379.601,122.584 376.349,122.584" stroke-linecap="butt"/>
   <polyline fill="none" stroke-linejoin="miter" stroke-width="3" stroke="#262626" points="54.5283,73.0892 57.7797,73.0892" stroke-linecap="butt"/>
   <polyline fill="none" stroke-linejoin="miter" stroke-width="3" stroke="#262626" points="379.601,73.0892 376.349,73.0892" stroke-linecap="butt"/>
   <polyline fill="none" stroke-linejoin="miter" stroke-width="3" stroke="#262626" points="54.5283,23.5939 57.7797,23.5939" stroke-linecap="butt"/>
   <polyline fill="none" stroke-linejoin="miter" stroke-width="3" stroke="#262626" points="379.601,23.5939 376.349,23.5939" stroke-linecap="butt"/>
   <g transform="translate(26.5267,276.57) rotate(-0,21,-5.5)" font-weight="normal" font-family="FreeSans" font-size="14" font-style="normal" xml:space="preserve">
    <text fill="rgb(38,38,38)" y="-0" x="0 5 13 ">-50</text>
   </g>
   <g transform="translate(39.5267,227.075) rotate(-0,8,-5.5)" font-weight="normal" font-family="FreeSans" font-size="14" font-style="normal" xml:space="preserve">
    <text fill="rgb(38,38,38)" y="-0" x="0 ">0</text>
   </g>
   <g transform="translate(31.5267,177.58) rotate(-0,16,-5.5)" font-weight="normal" font-family="FreeSans" font-size="14" font-style="normal" xml:space="preserve">
    <text fill="rgb(38,38,38)" y="-0" x="0 8 ">50</text>
   </g>
   <g transform="translate(23.5267,128.084) rotate(-0,24,-5.5)" font-weight="normal" font-family="FreeSans" font-size="14" font-style="normal" xml:space="preserve">
    <text fill="rgb(38,38,38)" y="-0" x="0 8 16 ">100</text>
   </g>
   <g transform="translate(23.5267,78.5892) rotate(-0,24,-5.5)" font-weight="normal" font-family="FreeSans" font-size="14" font-style="normal" xml:space="preserve">
    <text fill="rgb(38,38,38)" y="-0" x="0 8 16 ">150</text>
   </g>
   <g transform="translate(23.5267,29.094) rotate(-0,24,-5.5)" font-weight="normal" font-family="FreeSans" font-size="14" font-style="normal" xml:space="preserve">
    <text fill="rgb(38,38,38)" y="-0" x="0 8 16 ">200</text>
   </g>
   <polyline fill="none" stroke-linejoin="miter" stroke-dasharray="48,0" stroke-width="3" stroke="#262626" points="54.5283,271.07 379.601,271.07" stroke-linecap="square"/>
   <polyline fill="none" stroke-linejoin="miter" stroke-dasharray="48,0" stroke-width="3" stroke="#262626" points="54.5283,23.5939 379.601,23.5939" stroke-linecap="square"/>
   <polyline fill="none" stroke-linejoin="miter" stroke-dasharray="48,0" stroke-width="3" stroke="#262626" points="54.5283,271.07 54.5283,23.5939" stroke-linecap="square"/>
   <polyline fill="none" stroke-linejoin="miter" stroke-dasharray="48,0" stroke-width="3" stroke="#262626" points="379.601,271.07 379.601,23.5939" stroke-linecap="square"/>
   <g transform="translate(0.0266956,147.332) rotate(-90,18.5,0)" font-weight="normal" font-family="FreeSans" font-size="15.4" font-style="normal" xml:space="preserve">
    <text fill="rgb(38,38,38)" y="-1" x="0 10 18 21 29 ">Value</text>
   </g>
   <g transform="translate(179.064,314.59) rotate(-0,38,-17)" font-weight="normal" font-family="FreeSans" font-size="15.4" font-style="normal" xml:space="preserve">
    <text fill="rgb(38,38,38)" y="-4" x="0 10 18 31 40 43 51 55 63 72 ">Sample nb.</text>
   </g>
   <polyline fill="none" stroke-linejoin="round" stroke-width="2" stroke="#0071bc" points="54.5283,145.352 57.8118,46.3618 61.0954,145.352 64.3789,46.3618 67.6625,145.352 70.946,46.3618 74.2296,145.352 77.5132,46.3618 80.7967,145.352 84.0803,46.3618 87.3638,145.352 90.6474,46.3618 93.931,145.352 97.2145,46.3618 100.498,145.352 103.782,46.3618 107.065,145.352 110.349,46.3618 113.632,145.352 116.916,46.3618 120.199,145.352 123.483,46.3618 126.767,145.352 130.05,46.3618 133.334,145.352 136.617,46.3618 139.901,145.352 143.184,46.3618 146.468,145.352 149.751,46.3618 153.035,145.352 156.319,46.3618 159.602,145.352 162.886,46.3618 166.169,145.352 169.453,46.3618 172.736,145.352 176.02,46.3618 179.303,145.352 182.587,46.3618 185.871,145.352 189.154,46.3618 192.438,145.352 195.721,46.3618 199.005,145.352 202.288,46.3618 205.572,145.352 208.855,46.3618 212.139,145.352 215.423,46.3618 218.706,145.352 221.99,46.3618 225.273,145.352 228.557,46.3618 231.84,145.352 235.124,46.3618 238.408,145.352 241.691,46.3618 244.975,145.352 248.258,46.3618 251.542,145.352 254.825,46.3618 258.109,145.352 261.392,46.3618 264.676,145.352 267.96,46.3618 271.243,145.352 274.527,46.3618 277.81,145.352 281.094,46.3618 284.377,145.352 287.661,46.3618 290.944,145.352 294.228,46.3618 297.512,145.352 300.795,46.3618 304.079,145.352 307.362,46.3618 310.646,145.352 313.929,46.3618 317.213,145.352 320.496,46.3618 323.78,145.352 327.064,46.3618 330.347,145.352 333.631,46.3618 336.914,145.352 340.198,46.3618 343.481,145.352 346.765,46.3618 350.048,145.352 353.332,46.3618 356.616,145.352 359.899,46.3618 363.183,145.352 366.466,46.3618 369.75,145.352 373.033,46.3618 376.317,145.352 379.601,46.3618" stroke-linecap="butt"/>
   <polyline fill="none" stroke-linejoin="round" stroke-width="2" stroke="#d85218" points="54.5283,145.352 57.8118,50.3214 61.0954,154.261 64.3789,57.2507 67.6625,162.181 70.946,65.17 74.2296,169.11 77.5132,72.0993 80.7967,176.039 84.0803,79.0286 87.3638,182.969 90.6474,85.958 93.931,189.898 97.2145,91.8974 100.498,195.837 103.782,97.8368 107.065,201.777 110.349,103.776 113.632,207.716 116.916,108.726 120.199,212.666 123.483,113.675 126.767,217.615 130.05,118.625 133.334,221.575 136.617,122.584 139.901,225.535 143.184,126.544 146.468,229.494 149.751,129.514 153.035,232.464 156.319,133.473 159.602,235.434 162.886,136.443 166.169,238.403 169.453,138.423 172.736,241.373 176.02,141.393 179.303,243.353 182.587,143.372 185.871,246.323 189.154,146.342 192.438,248.302 195.721,148.322 199.005,249.292 202.288,149.312 205.572,251.272 208.855,151.292 212.139,253.252 215.423,153.271 218.706,254.242 221.99,154.261 225.273,256.222 228.557,155.251 231.84,257.212 235.124,157.231 238.408,258.201 241.691,158.221 244.975,259.191 248.258,159.211 251.542,260.181 254.825,160.201 258.109,261.171 261.392,161.191 264.676,262.161 267.96,161.191 271.243,263.151 274.527,162.181 277.81,264.141 281.094,163.171 284.377,264.141 287.661,164.16 290.944,265.131 294.228,164.16 297.512,265.131 300.795,165.15 304.079,266.121 307.362,165.15 310.646,266.121 313.929,166.14 317.213,267.111 320.496,166.14 323.78,267.111 327.064,166.14 330.347,268.1 333.631,167.13 336.914,268.1 340.198,167.13 343.481,268.1 346.765,167.13 350.048,269.09 353.332,168.12 356.616,269.09 359.899,168.12 363.183,269.09 366.466,168.12 369.75,269.09 373.033,168.12 376.317,270.08 379.601,169.11" stroke-linecap="butt"/>
  </g>
  <clipPath id="cp00419314">
   <polygon points="0,314 419,314 419,0 0,0"/>
  </clipPath>
  <g clip-path="url(#cp00419314)">
   <polygon fill="#ffffff" shape-rendering="crispEdges" points="325.548,73.5262 371.59,73.5262 371.59,31.6045 325.548,31.6045"/>
   <polyline fill="none" stroke-linejoin="miter" stroke-dasharray="16,0" stroke-width="0.5" stroke="#262626" points="325.548,73.5262 371.59,73.5262" stroke-linecap="square"/>
   <polyline fill="none" stroke-linejoin="miter" stroke-dasharray="16,0" stroke-width="0.5" stroke="#262626" points="325.548,31.6045 371.59,31.6045" stroke-linecap="square"/>
   <polyline fill="none" stroke-linejoin="miter" stroke-dasharray="16,0" stroke-width="0.5" stroke="#262626" points="325.548,73.5262 325.548,31.6045" stroke-linecap="square"/>
   <polyline fill="none" stroke-linejoin="miter" stroke-dasharray="16,0" stroke-width="0.5" stroke="#262626" points="371.59,73.5262 371.59,31.6045" stroke-linecap="square"/>
   <polyline fill="none" stroke-linejoin="round" stroke-width="2" stroke="#0071bc" points="329.553,43.0862 349.579,43.0862" stroke-linecap="butt"/>
   <g transform="translate(353.585,49.5862) rotate(-0,-0,-6.5)" font-weight="normal" font-family="FreeSans" font-size="16" font-style="normal" xml:space="preserve">
    <text fill="rgb(0,0,0)" y="-3" x="0 ">x</text>
    <text fill="rgb(0,0,0)" y="-0" font-size="11.2" x="8 ">n</text>
   </g>
   <polyline fill="none" stroke-linejoin="round" stroke-width="2" stroke="#d85218" points="329.553,62.0445 349.579,62.0445" stroke-linecap="butt"/>
   <g transform="translate(353.585,69.0445) rotate(-0,-0,-7)" font-weight="normal" font-family="FreeSans" font-size="16" font-style="normal" xml:space="preserve">
    <text fill="rgb(0,0,0)" y="-4" x="0 ">y</text>
    <text fill="rgb(0,0,0)" y="-1" font-size="11.2" x="8 ">n</text>
   </g>
  </g>
 </g>
</svg>
