<?xml version='1.0' encoding='UTF-8' standalone='no'?>
<svg xmlns:xlink="http://www.w3.org/1999/xlink" height="314pt" xmlns="http://www.w3.org/2000/svg" width="419pt" viewBox="0 0 419 314">
 <title>Figure 1</title>
 <desc>
Creator: GL2PS 1.4.2, (C) 1999-2020 C. Geuzaine
For: Octave
CreationDate: Fri Dec 30 16:48:50 2022
</desc>
 <defs/>
 <polygon fill="#ffffff" points="0,0 419,0 419,314 0,314"/>
 <g>
  <polygon shape-rendering="crispEdges" fill="#ffffff" points="0,314 419,314 419,0 0,0"/>
  <clipPath id="cp00419314">
   <polygon points="0,314 419,314 419,0 0,0"/>
  </clipPath>
  <g clip-path="url(#cp00419314)">
   <polygon shape-rendering="crispEdges" fill="#ffffff" points="54.5283,271.07 379.601,271.07 379.601,23.594 54.5283,23.594"/>
   <polyline stroke-opacity="0.15" fill="none" stroke-linecap="butt" stroke-linejoin="miter" stroke-width="3" stroke="#262626" points="54.5283,271.07 54.5283,23.594" stroke-dasharray="48,0"/>
   <polyline stroke-opacity="0.15" fill="none" stroke-linecap="butt" stroke-linejoin="miter" stroke-width="3" stroke="#262626" points="135.796,271.07 135.796,23.594" stroke-dasharray="48,0"/>
   <polyline stroke-opacity="0.15" fill="none" stroke-linecap="butt" stroke-linejoin="miter" stroke-width="3" stroke="#262626" points="217.064,271.07 217.064,23.594" stroke-dasharray="48,0"/>
   <polyline stroke-opacity="0.15" fill="none" stroke-linecap="butt" stroke-linejoin="miter" stroke-width="3" stroke="#262626" points="298.332,271.07 298.332,23.594" stroke-dasharray="48,0"/>
   <polyline stroke-opacity="0.15" fill="none" stroke-linecap="butt" stroke-linejoin="miter" stroke-width="3" stroke="#262626" points="379.601,271.07 379.601,23.594" stroke-dasharray="48,0"/>
   <polyline fill="none" stroke-linecap="butt" stroke-linejoin="miter" stroke-width="3" stroke="#262626" points="54.5283,271.07 54.5283,267.813"/>
   <polyline fill="none" stroke-linecap="butt" stroke-linejoin="miter" stroke-width="3" stroke="#262626" points="54.5283,23.594 54.5283,26.851"/>
   <polyline fill="none" stroke-linecap="butt" stroke-linejoin="miter" stroke-width="3" stroke="#262626" points="135.796,271.07 135.796,267.813"/>
   <polyline fill="none" stroke-linecap="butt" stroke-linejoin="miter" stroke-width="3" stroke="#262626" points="135.796,23.594 135.796,26.851"/>
   <polyline fill="none" stroke-linecap="butt" stroke-linejoin="miter" stroke-width="3" stroke="#262626" points="217.064,271.07 217.064,267.813"/>
   <polyline fill="none" stroke-linecap="butt" stroke-linejoin="miter" stroke-width="3" stroke="#262626" points="217.064,23.594 217.064,26.851"/>
   <polyline fill="none" stroke-linecap="butt" stroke-linejoin="miter" stroke-width="3" stroke="#262626" points="298.332,271.07 298.332,267.813"/>
   <polyline fill="none" stroke-linecap="butt" stroke-linejoin="miter" stroke-width="3" stroke="#262626" points="298.332,23.594 298.332,26.851"/>
   <polyline fill="none" stroke-linecap="butt" stroke-linejoin="miter" stroke-width="3" stroke="#262626" points="379.601,271.07 379.601,267.813"/>
   <polyline fill="none" stroke-linecap="butt" stroke-linejoin="miter" stroke-width="3" stroke="#262626" points="379.601,23.594 379.601,26.851"/>
   <g font-size="14" font-family="FreeSans" font-weight="normal" xml:space="preserve" font-style="normal" transform="translate(50.5283,292.59) rotate(-0,4,-11)">
    <text y="-0" fill="rgb(38,38,38)" x="0 ">0</text>
   </g>
   <g font-size="14" font-family="FreeSans" font-weight="normal" xml:space="preserve" font-style="normal" transform="translate(125.796,292.59) rotate(-0,10,-11)">
    <text y="-0" fill="rgb(38,38,38)" x="0 8 12 ">0.5</text>
   </g>
   <g font-size="14" font-family="FreeSans" font-weight="normal" xml:space="preserve" font-style="normal" transform="translate(213.064,292.59) rotate(-0,4,-11)">
    <text y="-0" fill="rgb(38,38,38)" x="0 ">1</text>
   </g>
   <g font-size="14" font-family="FreeSans" font-weight="normal" xml:space="preserve" font-style="normal" transform="translate(288.332,292.59) rotate(-0,10,-11)">
    <text y="-0" fill="rgb(38,38,38)" x="0 8 12 ">1.5</text>
   </g>
   <g font-size="14" font-family="FreeSans" font-weight="normal" xml:space="preserve" font-style="normal" transform="translate(375.601,292.59) rotate(-0,4,-11)">
    <text y="-0" fill="rgb(38,38,38)" x="0 ">2</text>
   </g>
   <polyline stroke-opacity="0.15" fill="none" stroke-linecap="butt" stroke-linejoin="miter" stroke-width="3" stroke="#262626" points="54.5283,271.07 379.601,271.07" stroke-dasharray="48,0"/>
   <polyline stroke-opacity="0.15" fill="none" stroke-linecap="butt" stroke-linejoin="miter" stroke-width="3" stroke="#262626" points="54.5283,229.824 379.601,229.824" stroke-dasharray="48,0"/>
   <polyline stroke-opacity="0.15" fill="none" stroke-linecap="butt" stroke-linejoin="miter" stroke-width="3" stroke="#262626" points="54.5283,188.578 379.601,188.578" stroke-dasharray="48,0"/>
   <polyline stroke-opacity="0.15" fill="none" stroke-linecap="butt" stroke-linejoin="miter" stroke-width="3" stroke="#262626" points="54.5283,147.332 379.601,147.332" stroke-dasharray="48,0"/>
   <polyline stroke-opacity="0.15" fill="none" stroke-linecap="butt" stroke-linejoin="miter" stroke-width="3" stroke="#262626" points="54.5283,106.086 379.601,106.086" stroke-dasharray="48,0"/>
   <polyline stroke-opacity="0.15" fill="none" stroke-linecap="butt" stroke-linejoin="miter" stroke-width="3" stroke="#262626" points="54.5283,64.84 379.601,64.84" stroke-dasharray="48,0"/>
   <polyline stroke-opacity="0.15" fill="none" stroke-linecap="butt" stroke-linejoin="miter" stroke-width="3" stroke="#262626" points="54.5283,23.594 379.601,23.594" stroke-dasharray="48,0"/>
   <polyline fill="none" stroke-linecap="butt" stroke-linejoin="miter" stroke-width="3" stroke="#262626" points="54.5283,271.07 57.7797,271.07"/>
   <polyline fill="none" stroke-linecap="butt" stroke-linejoin="miter" stroke-width="3" stroke="#262626" points="379.601,271.07 376.349,271.07"/>
   <polyline fill="none" stroke-linecap="butt" stroke-linejoin="miter" stroke-width="3" stroke="#262626" points="54.5283,229.824 57.7797,229.824"/>
   <polyline fill="none" stroke-linecap="butt" stroke-linejoin="miter" stroke-width="3" stroke="#262626" points="379.601,229.824 376.349,229.824"/>
   <polyline fill="none" stroke-linecap="butt" stroke-linejoin="miter" stroke-width="3" stroke="#262626" points="54.5283,188.578 57.7797,188.578"/>
   <polyline fill="none" stroke-linecap="butt" stroke-linejoin="miter" stroke-width="3" stroke="#262626" points="379.601,188.578 376.349,188.578"/>
   <polyline fill="none" stroke-linecap="butt" stroke-linejoin="miter" stroke-width="3" stroke="#262626" points="54.5283,147.332 57.7797,147.332"/>
   <polyline fill="none" stroke-linecap="butt" stroke-linejoin="miter" stroke-width="3" stroke="#262626" points="379.601,147.332 376.349,147.332"/>
   <polyline fill="none" stroke-linecap="butt" stroke-linejoin="miter" stroke-width="3" stroke="#262626" points="54.5283,106.086 57.7797,106.086"/>
   <polyline fill="none" stroke-linecap="butt" stroke-linejoin="miter" stroke-width="3" stroke="#262626" points="379.601,106.086 376.349,106.086"/>
   <polyline fill="none" stroke-linecap="butt" stroke-linejoin="miter" stroke-width="3" stroke="#262626" points="54.5283,64.84 57.7797,64.84"/>
   <polyline fill="none" stroke-linecap="butt" stroke-linejoin="miter" stroke-width="3" stroke="#262626" points="379.601,64.84 376.349,64.84"/>
   <polyline fill="none" stroke-linecap="butt" stroke-linejoin="miter" stroke-width="3" stroke="#262626" points="54.5283,23.594 57.7797,23.594"/>
   <polyline fill="none" stroke-linecap="butt" stroke-linejoin="miter" stroke-width="3" stroke="#262626" points="379.601,23.594 376.349,23.594"/>
   <g font-size="14" font-family="FreeSans" font-weight="normal" xml:space="preserve" font-style="normal" transform="translate(26.5267,276.57) rotate(-0,21,-5.5)">
    <text y="-0" fill="rgb(38,38,38)" x="0 5 13 ">-50</text>
   </g>
   <g font-size="14" font-family="FreeSans" font-weight="normal" xml:space="preserve" font-style="normal" transform="translate(26.5267,235.324) rotate(-0,21,-5.5)">
    <text y="-0" fill="rgb(38,38,38)" x="0 5 13 ">-40</text>
   </g>
   <g font-size="14" font-family="FreeSans" font-weight="normal" xml:space="preserve" font-style="normal" transform="translate(26.5267,194.078) rotate(-0,21,-5.5)">
    <text y="-0" fill="rgb(38,38,38)" x="0 5 13 ">-30</text>
   </g>
   <g font-size="14" font-family="FreeSans" font-weight="normal" xml:space="preserve" font-style="normal" transform="translate(26.5267,152.832) rotate(-0,21,-5.5)">
    <text y="-0" fill="rgb(38,38,38)" x="0 5 13 ">-20</text>
   </g>
   <g font-size="14" font-family="FreeSans" font-weight="normal" xml:space="preserve" font-style="normal" transform="translate(26.5267,111.586) rotate(-0,21,-5.5)">
    <text y="-0" fill="rgb(38,38,38)" x="0 5 13 ">-10</text>
   </g>
   <g font-size="14" font-family="FreeSans" font-weight="normal" xml:space="preserve" font-style="normal" transform="translate(39.5267,70.34) rotate(-0,8,-5.5)">
    <text y="-0" fill="rgb(38,38,38)" x="0 ">0</text>
   </g>
   <g font-size="14" font-family="FreeSans" font-weight="normal" xml:space="preserve" font-style="normal" transform="translate(31.5267,29.094) rotate(-0,16,-5.5)">
    <text y="-0" fill="rgb(38,38,38)" x="0 8 ">10</text>
   </g>
   <polyline fill="none" stroke-linecap="square" stroke-linejoin="miter" stroke-width="3" stroke="#262626" points="54.5283,271.07 379.601,271.07" stroke-dasharray="48,0"/>
   <polyline fill="none" stroke-linecap="square" stroke-linejoin="miter" stroke-width="3" stroke="#262626" points="54.5283,23.594 379.601,23.594" stroke-dasharray="48,0"/>
   <polyline fill="none" stroke-linecap="square" stroke-linejoin="miter" stroke-width="3" stroke="#262626" points="54.5283,271.07 54.5283,23.594" stroke-dasharray="48,0"/>
   <polyline fill="none" stroke-linecap="square" stroke-linejoin="miter" stroke-width="3" stroke="#262626" points="379.601,271.07 379.601,23.594" stroke-dasharray="48,0"/>
   <g font-size="15.4" font-family="FreeSans" font-weight="normal" xml:space="preserve" font-style="normal" transform="translate(175.564,314.59) rotate(-0,41.5,-17)">
    <text y="-4" fill="rgb(38,38,38)" x="0 9 14 22 31 35 39 44 49 57 66 70 78 ">Freq. (rad/s)</text>
   </g>
   <g font-size="15.4" font-family="FreeSans" font-weight="normal" xml:space="preserve" font-style="normal" transform="translate(-10.4733,147.332) rotate(-90,32,0)">
    <text y="-3" fill="rgb(38,38,38)" x="0 12 20 23 31 35 40 49 59 ">Gain (dB)</text>
   </g>
   <polyline fill="none" stroke-linecap="butt" stroke-linejoin="round" stroke-width="3" stroke="#0071bc" points="55.5256,247.322 56.5229,222.49 57.5202,207.964 58.5175,197.658 59.5148,189.664 60.5121,183.133 61.5094,177.611 62.5067,172.828 63.504,168.609 64.5014,164.836 65.4987,161.423 66.496,158.307 67.4933,155.44 68.4906,152.787 69.4879,150.317 70.4852,148.006 71.4825,145.836 72.4798,143.791 73.4771,141.856 74.4744,140.02 75.4717,138.275 76.4691,136.61 77.4664,135.02 78.4637,133.498 79.461,132.039 80.4583,130.636 81.4556,129.287 82.4529,127.987 83.4502,126.733 84.4475,125.522 85.4449,124.351 86.4422,123.217 87.4395,122.118 88.4368,121.052 89.4341,120.018 90.4314,119.013 91.4287,118.035 92.426,117.084 93.4233,116.158 94.4206,115.255 95.4179,114.375 96.4153,113.516 97.4126,112.678 98.4099,111.859 99.4072,111.059 100.404,110.277 101.402,109.512 102.399,108.763 103.396,108.03 104.394,107.311 105.391,106.608 106.388,105.918 107.386,105.241 108.383,104.578 109.38,103.926 110.378,103.287 111.375,102.659 112.372,102.043 113.37,101.437 114.367,100.842 115.364,100.256 116.361,99.6806 117.359,99.1144 118.356,98.5573 119.353,98.0092 120.351,97.4696 121.348,96.9383 122.345,96.4152 123.343,95.8999 124.34,95.3922 125.337,94.892 126.335,94.399 127.332,93.913 128.329,93.4339 129.326,92.9614 130.324,92.4954 131.321,92.0357 132.318,91.5821 133.316,91.1346 134.313,90.6929 135.31,90.257 136.308,89.8266 137.305,89.4016 138.302,88.982 139.3,88.5676 140.297,88.1582 141.294,87.7538 142.291,87.3542 143.289,86.9594 144.286,86.5692 145.283,86.1836 146.281,85.8024 147.278,85.4255 148.275,85.0529 149.273,84.6845 150.27,84.3202 151.267,83.9598 152.265,83.6034 153.262,83.2508 154.259,82.902 155.257,82.5569 156.254,82.2154 157.251,81.8775 158.248,81.543 159.246,81.212 160.243,80.8844 161.24,80.5601 162.238,80.239 163.235,79.9211 164.232,79.6063 165.23,79.2946 166.227,78.9859 167.224,78.6802 168.222,78.3774 169.219,78.0775 170.216,77.7804 171.213,77.4861 172.211,77.1945 173.208,76.9056 174.205,76.6194 175.203,76.3357 176.2,76.0547 177.197,75.7761 178.195,75.5 179.192,75.2264 180.189,74.9552 181.187,74.6863 182.184,74.4198 183.181,74.1556 184.178,73.8937 185.176,73.634 186.173,73.3765 187.17,73.1212 188.168,72.868 189.165,72.6169 190.162,72.3679 191.16,72.121 192.157,71.8761 193.154,71.6331 194.152,71.3922 195.149,71.1532 196.146,70.9161 197.143,70.6809 198.141,70.4476 199.138,70.2162 200.135,69.9865 201.133,69.7587 202.13,69.5326 203.127,69.3082 204.125,69.0856 205.122,68.8648 206.119,68.6456 207.117,68.428 208.114,68.2122 209.111,67.9979 210.109,67.7853 211.106,67.5742 212.103,67.3647 213.1,67.1568 214.098,66.9504 215.095,66.7455 216.092,66.5422 217.09,66.3403 218.087,66.1398 219.084,65.9409 220.082,65.7433 221.079,65.5472 222.076,65.3525 223.074,65.1592 224.071,64.9672 225.068,64.7766 226.065,64.5874 227.063,64.3994 228.06,64.2128 229.057,64.0275 230.055,63.8435 231.052,63.6608 232.049,63.4793 233.047,63.299 234.044,63.12 235.041,62.9423 236.039,62.7657 237.036,62.5904 238.033,62.4162 239.03,62.2432 240.028,62.0714 241.025,61.9008 242.022,61.7312 243.02,61.5629 244.017,61.3956 245.014,61.2295 246.012,61.0644 247.009,60.9005 248.006,60.7376 249.004,60.5758 250.001,60.4151 250.998,60.2554 251.995,60.0968 252.993,59.9391 253.99,59.7826 254.987,59.627 255.985,59.4725 256.982,59.3189 257.979,59.1664 258.977,59.0148 259.974,58.8642 260.971,58.7146 261.969,58.5659 262.966,58.4182 263.963,58.2714 264.961,58.1255 265.958,57.9806 266.955,57.8366 267.952,57.6935 268.95,57.5513 269.947,57.41 270.944,57.2697 271.942,57.1301 272.939,56.9915 273.936,56.8537 274.934,56.7168 275.931,56.5808 276.928,56.4456 277.926,56.3112 278.923,56.1777 279.92,56.0451 280.917,55.9132 281.915,55.7822 282.912,55.6519 283.909,55.5226 284.907,55.3939 285.904,55.2661 286.901,55.1391 287.899,55.0128 288.896,54.8874 289.893,54.7627 290.891,54.6388 291.888,54.5156 292.885,54.3932 293.883,54.2716 294.88,54.1507 295.877,54.0305 296.874,53.9111 297.872,53.7924 298.869,53.6745 299.866,53.5573 300.864,53.4407 301.861,53.3249 302.858,53.2098 303.856,53.0955 304.853,52.9818 305.85,52.8688 306.848,52.7565 307.845,52.6449 308.842,52.5339"/>
   <polyline fill="none" stroke-linecap="butt" stroke-linejoin="round" stroke-width="3" stroke="#d85218" points="55.5256,222.491 56.5229,197.663 57.5202,183.144 58.5175,172.847 59.5148,164.865 60.5121,158.349 61.5094,152.845 62.5067,148.082 63.504,143.886 64.5014,140.138 65.4987,136.752 66.496,133.667 67.4933,130.834 68.4906,128.217 69.4879,125.785 70.4852,123.516 71.4825,121.389 72.4798,119.389 73.4771,117.503 74.4744,115.719 75.4717,114.026 76.4691,112.418 77.4664,110.886 78.4637,109.425 79.461,108.028 80.4583,106.691 81.4556,105.41 82.4529,104.18 83.4502,102.998 84.4475,101.861 85.4449,100.766 86.4422,99.7108 87.4395,98.6927 88.4368,97.7098 89.4341,96.76 90.4314,95.8415 91.4287,94.9528 92.426,94.0923 93.4233,93.2587 94.4206,92.4505 95.4179,91.6668 96.4153,90.9062 97.4126,90.1678 98.4099,89.4507 99.4072,88.7538 100.404,88.0765 101.402,87.4177 102.399,86.7769 103.396,86.1533 104.394,85.5462 105.391,84.9551 106.388,84.3793 107.386,83.8182 108.383,83.2713 109.38,82.7382 110.378,82.2184 111.375,81.7113 112.372,81.2166 113.37,80.7338 114.367,80.2626 115.364,79.8026 116.361,79.3534 117.359,78.9147 118.356,78.4861 119.353,78.0674 120.351,77.6582 121.348,77.2583 122.345,76.8673 123.343,76.4851 124.34,76.1114 125.337,75.7458 126.335,75.3882 127.332,75.0384 128.329,74.6962 129.326,74.3612 130.324,74.0334 131.321,73.7126 132.318,73.3984 133.316,73.0909 134.313,72.7897 135.31,72.4948 136.308,72.2059 137.305,71.9229 138.302,71.6456 139.3,71.374 140.297,71.1078 141.294,70.847 142.291,70.5913 143.289,70.3407 144.286,70.095 145.283,69.8541 146.281,69.6179 147.278,69.3863 148.275,69.1592 149.273,68.9364 150.27,68.7179 151.267,68.5035 152.265,68.2932 153.262,68.0868 154.259,67.8844 155.257,67.6856 156.254,67.4906 157.251,67.2992 158.248,67.1113 159.246,66.9268 160.243,66.7457 161.24,66.5679 162.238,66.3933 163.235,66.2219 164.232,66.0535 165.23,65.8881 166.227,65.7257 167.224,65.5661 168.222,65.4093 169.219,65.2553 170.216,65.104 171.213,64.9553 172.211,64.8091 173.208,64.6655 174.205,64.5244 175.203,64.3856 176.2,64.2493 177.197,64.1152 178.195,63.9834 179.192,63.8538 180.189,63.7263 181.187,63.6011 182.184,63.4778 183.181,63.3567 184.178,63.2375 185.176,63.1202 186.173,63.0049 187.17,62.8915 188.168,62.7799 189.165,62.6701 190.162,62.562 191.16,62.4557 192.157,62.3511 193.154,62.2482 194.152,62.1469 195.149,62.0471 196.146,61.949 197.143,61.8523 198.141,61.7572 199.138,61.6636 200.135,61.5714 201.133,61.4806 202.13,61.3912 203.127,61.3032 204.125,61.2166 205.122,61.1312 206.119,61.0471 207.117,60.9643 208.114,60.8828 209.111,60.8024 210.109,60.7233 211.106,60.6453 212.103,60.5685 213.1,60.4928 214.098,60.4182 215.095,60.3447 216.092,60.2723 217.09,60.2009 218.087,60.1306 219.084,60.0613 220.082,59.993 221.079,59.9256 222.076,59.8592 223.074,59.7938 224.071,59.7293 225.068,59.6657 226.065,59.603 227.063,59.5411 228.06,59.4801 229.057,59.42 230.055,59.3607 231.052,59.3022 232.049,59.2446 233.047,59.1877 234.044,59.1316 235.041,59.0763 236.039,59.0217 237.036,58.9678 238.033,58.9147 239.03,58.8623 240.028,58.8106 241.025,58.7596 242.022,58.7093 243.02,58.6596 244.017,58.6106 245.014,58.5622 246.012,58.5145 247.009,58.4674 248.006,58.4209 249.004,58.375 250.001,58.3297 250.998,58.285 251.995,58.2409 252.993,58.1973 253.99,58.1543 254.987,58.1119 255.985,58.0699 256.982,58.0285 257.979,57.9877 258.977,57.9474 259.974,57.9075 260.971,57.8682 261.969,57.8293 262.966,57.791 263.963,57.7531 264.961,57.7157 265.958,57.6787 266.955,57.6422 267.952,57.6061 268.95,57.5705 269.947,57.5353 270.944,57.5006 271.942,57.4663 272.939,57.4323 273.936,57.3988 274.934,57.3658 275.931,57.333 276.928,57.3007 277.926,57.2688 278.923,57.2372 279.92,57.2061 280.917,57.1753 281.915,57.1448 282.912,57.1147 283.909,57.085 284.907,57.0556 285.904,57.0266 286.901,56.9979 287.899,56.9695 288.896,56.9414 289.893,56.9137 290.891,56.8863 291.888,56.8592 292.885,56.8325 293.883,56.806 294.88,56.7798 295.877,56.7539 296.874,56.7284 297.872,56.7031 298.869,56.6781 299.866,56.6534 300.864,56.6289 301.861,56.6048 302.858,56.5809 303.856,56.5572 304.853,56.5339 305.85,56.5107 306.848,56.4879 307.845,56.4653 308.842,56.443"/>
   <polyline fill="none" stroke-linecap="butt" stroke-linejoin="round" stroke-width="3" stroke="#ecb01f" points="55.5256,164.891 56.5229,140.239 57.5202,126.01 58.5175,116.112 59.5148,108.629 60.5121,102.703 61.5094,97.8703 62.5067,93.8513 63.504,90.4608 64.5014,87.5695 65.4987,85.0832 66.496,82.9303 67.4933,81.0551 68.4906,79.4136 69.4879,77.9701 70.4852,76.6955 71.4825,75.5658 72.4798,74.5609 73.4771,73.6641 74.4744,72.8613 75.4717,72.1403 76.4691,71.491 77.4664,70.9046 78.4637,70.3737 79.461,69.8918 80.4583,69.4533 81.4556,69.0534 82.4529,68.6878 83.4502,68.3528 84.4475,68.0454 85.4449,67.7626 86.4422,67.502 87.4395,67.2613 88.4368,67.0388 89.4341,66.8325 90.4314,66.6411 91.4287,66.4632 92.426,66.2976 93.4233,66.1432 94.4206,65.999 95.4179,65.8642 96.4153,65.738 97.4126,65.6196 98.4099,65.5086 99.4072,65.4042 100.404,65.3061 101.402,65.2136 102.399,65.1264 103.396,65.0441 104.394,64.9664 105.391,64.8928 106.388,64.8232 107.386,64.7573 108.383,64.6947 109.38,64.6354 110.378,64.579 111.375,64.5254 112.372,64.4743 113.37,64.4258 114.367,64.3795 115.364,64.3353 116.361,64.2932 117.359,64.253 118.356,64.2145 119.353,64.1777 120.351,64.1426 121.348,64.1089 122.345,64.0766 123.343,64.0457 124.34,64.0161 125.337,63.9876 126.335,63.9603 127.332,63.9341 128.329,63.9088 129.326,63.8846 130.324,63.8613 131.321,63.8388 132.318,63.8172 133.316,63.7963 134.313,63.7762 135.31,63.7569 136.308,63.7382 137.305,63.7202 138.302,63.7028 139.3,63.686 140.297,63.6697 141.294,63.654 142.291,63.6388 143.289,63.6242 144.286,63.61 145.283,63.5962 146.281,63.5829 147.278,63.57 148.275,63.5575 149.273,63.5454 150.27,63.5336 151.267,63.5222 152.265,63.5112 153.262,63.5005 154.259,63.4901 155.257,63.48 156.254,63.4702 157.251,63.4606 158.248,63.4514 159.246,63.4424 160.243,63.4336 161.24,63.4251 162.238,63.4168 163.235,63.4087 164.232,63.4009 165.23,63.3932 166.227,63.3858 167.224,63.3786 168.222,63.3715 169.219,63.3646 170.216,63.3579 171.213,63.3514 172.211,63.345 173.208,63.3388 174.205,63.3328 175.203,63.3269 176.2,63.3211 177.197,63.3155 178.195,63.31 179.192,63.3046 180.189,63.2994 181.187,63.2943 182.184,63.2893 183.181,63.2844 184.178,63.2796 185.176,63.2749 186.173,63.2704 187.17,63.2659 188.168,63.2616 189.165,63.2573 190.162,63.2531 191.16,63.2491 192.157,63.2451 193.154,63.2411 194.152,63.2373 195.149,63.2336 196.146,63.2299 197.143,63.2263 198.141,63.2228 199.138,63.2194 200.135,63.216 201.133,63.2127 202.13,63.2095 203.127,63.2063 204.125,63.2032 205.122,63.2001 206.119,63.1971 207.117,63.1942 208.114,63.1913 209.111,63.1885 210.109,63.1857 211.106,63.183 212.103,63.1804 213.1,63.1778 214.098,63.1752 215.095,63.1727 216.092,63.1702 217.09,63.1678 218.087,63.1654 219.084,63.1631 220.082,63.1608 221.079,63.1585 222.076,63.1563 223.074,63.1541 224.071,63.152 225.068,63.1499 226.065,63.1478 227.063,63.1458 228.06,63.1438 229.057,63.1419 230.055,63.14 231.052,63.1381 232.049,63.1362 233.047,63.1344 234.044,63.1326 235.041,63.1308 236.039,63.1291 237.036,63.1274 238.033,63.1257 239.03,63.124 240.028,63.1224 241.025,63.1208 242.022,63.1192 243.02,63.1177 244.017,63.1161 245.014,63.1146 246.012,63.1132 247.009,63.1117 248.006,63.1103 249.004,63.1089 250.001,63.1075 250.998,63.1061 251.995,63.1048 252.993,63.1034 253.99,63.1021 254.987,63.1008 255.985,63.0996 256.982,63.0983 257.979,63.0971 258.977,63.0959 259.974,63.0947 260.971,63.0935 261.969,63.0923 262.966,63.0912 263.963,63.0901 264.961,63.089 265.958,63.0879 266.955,63.0868 267.952,63.0857 268.95,63.0847 269.947,63.0836 270.944,63.0826 271.942,63.0816 272.939,63.0806 273.936,63.0797 274.934,63.0787 275.931,63.0777 276.928,63.0768 277.926,63.0759 278.923,63.075 279.92,63.0741 280.917,63.0732 281.915,63.0723 282.912,63.0715 283.909,63.0706 284.907,63.0698 285.904,63.0689 286.901,63.0681 287.899,63.0673 288.896,63.0665 289.893,63.0657 290.891,63.0649 291.888,63.0642 292.885,63.0634 293.883,63.0627 294.88,63.0619 295.877,63.0612 296.874,63.0605 297.872,63.0598 298.869,63.0591 299.866,63.0584 300.864,63.0577 301.861,63.057 302.858,63.0564 303.856,63.0557 304.853,63.0551 305.85,63.0544 306.848,63.0538 307.845,63.0531 308.842,63.0525"/>
   <polyline fill="none" stroke-linecap="butt" stroke-linejoin="round" stroke-width="3" stroke="#7d2e8d" points="55.5256,88.0131 56.5229,73.854 57.5202,69.3336 58.5175,67.437 59.5148,66.4861 60.5121,65.9477 61.5094,65.615 62.5067,65.3957 63.504,65.2438 64.5014,65.1344 65.4987,65.0529 66.496,64.9908 67.4933,64.9422 68.4906,64.9036 69.4879,64.8724 70.4852,64.8469 71.4825,64.8256 72.4798,64.8078 73.4771,64.7927 74.4744,64.7798 75.4717,64.7688 76.4691,64.7591 77.4664,64.7507 78.4637,64.7433 79.461,64.7368 80.4583,64.7311 81.4556,64.7259 82.4529,64.7213 83.4502,64.7172 84.4475,64.7134 85.4449,64.71 86.4422,64.707 87.4395,64.7042 88.4368,64.7016 89.4341,64.6993 90.4314,64.6971 91.4287,64.6952 92.426,64.6934 93.4233,64.6917 94.4206,64.6901 95.4179,64.6887 96.4153,64.6873 97.4126,64.6861 98.4099,64.6849 99.4072,64.6838 100.404,64.6828 101.402,64.6819 102.399,64.681 103.396,64.6801 104.394,64.6793 105.391,64.6786 106.388,64.6779 107.386,64.6772 108.383,64.6766 109.38,64.676 110.378,64.6754 111.375,64.6749 112.372,64.6744 113.37,64.6739 114.367,64.6734 115.364,64.673 116.361,64.6726 117.359,64.6722 118.356,64.6718 119.353,64.6715 120.351,64.6711 121.348,64.6708 122.345,64.6705 123.343,64.6702 124.34,64.6699 125.337,64.6696 126.335,64.6694 127.332,64.6691 128.329,64.6689 129.326,64.6687 130.324,64.6684 131.321,64.6682 132.318,64.668 133.316,64.6678 134.313,64.6676 135.31,64.6674 136.308,64.6673 137.305,64.6671 138.302,64.6669 139.3,64.6668 140.297,64.6666 141.294,64.6665 142.291,64.6663 143.289,64.6662 144.286,64.666 145.283,64.6659 146.281,64.6658 147.278,64.6657 148.275,64.6655 149.273,64.6654 150.27,64.6653 151.267,64.6652 152.265,64.6651 153.262,64.665 154.259,64.6649 155.257,64.6648 156.254,64.6647 157.251,64.6646 158.248,64.6646 159.246,64.6645 160.243,64.6644 161.24,64.6643 162.238,64.6642 163.235,64.6642 164.232,64.6641 165.23,64.664 166.227,64.6639 167.224,64.6639 168.222,64.6638 169.219,64.6637 170.216,64.6637 171.213,64.6636 172.211,64.6636 173.208,64.6635 174.205,64.6635 175.203,64.6634 176.2,64.6633 177.197,64.6633 178.195,64.6632 179.192,64.6632 180.189,64.6631 181.187,64.6631 182.184,64.663 183.181,64.663 184.178,64.6629 185.176,64.6629 186.173,64.6629 187.17,64.6628 188.168,64.6628 189.165,64.6628 190.162,64.6627 191.16,64.6627 192.157,64.6626 193.154,64.6626 194.152,64.6626 195.149,64.6625 196.146,64.6625 197.143,64.6625 198.141,64.6624 199.138,64.6624 200.135,64.6624 201.133,64.6623 202.13,64.6623 203.127,64.6623 204.125,64.6622 205.122,64.6622 206.119,64.6622 207.117,64.6622 208.114,64.6621 209.111,64.6621 210.109,64.6621 211.106,64.6621 212.103,64.662 213.1,64.662 214.098,64.662 215.095,64.662 216.092,64.6619 217.09,64.6619 218.087,64.6619 219.084,64.6619 220.082,64.6619 221.079,64.6618 222.076,64.6618 223.074,64.6618 224.071,64.6618 225.068,64.6618 226.065,64.6617 227.063,64.6617 228.06,64.6617 229.057,64.6617 230.055,64.6617 231.052,64.6617 232.049,64.6616 233.047,64.6616 234.044,64.6616 235.041,64.6616 236.039,64.6616 237.036,64.6615 238.033,64.6615 239.03,64.6615 240.028,64.6615 241.025,64.6615 242.022,64.6615 243.02,64.6615 244.017,64.6615 245.014,64.6614 246.012,64.6614 247.009,64.6614 248.006,64.6614 249.004,64.6614 250.001,64.6614 250.998,64.6613 251.995,64.6613 252.993,64.6613 253.99,64.6613 254.987,64.6613 255.985,64.6613 256.982,64.6613 257.979,64.6613 258.977,64.6613 259.974,64.6613 260.971,64.6612 261.969,64.6612 262.966,64.6612 263.963,64.6612 264.961,64.6612 265.958,64.6612 266.955,64.6612 267.952,64.6612 268.95,64.6612 269.947,64.6611 270.944,64.6611 271.942,64.6611 272.939,64.6611 273.936,64.6611 274.934,64.6611 275.931,64.6611 276.928,64.6611 277.926,64.6611 278.923,64.6611 279.92,64.6611 280.917,64.6611 281.915,64.661 282.912,64.661 283.909,64.661 284.907,64.661 285.904,64.661 286.901,64.661 287.899,64.661 288.896,64.661 289.893,64.661 290.891,64.661 291.888,64.661 292.885,64.661 293.883,64.661 294.88,64.6609 295.877,64.6609 296.874,64.6609 297.872,64.6609 298.869,64.6609 299.866,64.6609 300.864,64.6609 301.861,64.6609 302.858,64.6609 303.856,64.6609 304.853,64.6609 305.85,64.6609 306.848,64.6609 307.845,64.6609 308.842,64.6609"/>
  </g>
  <clipPath id="cp00419314">
   <polygon points="0,314 419,314 419,0 0,0"/>
  </clipPath>
  <g clip-path="url(#cp00419314)">
   <polygon shape-rendering="crispEdges" fill="#ffffff" points="295.548,103.631 371.59,103.631 371.59,31.6045 295.548,31.6045"/>
   <polyline fill="none" stroke-linecap="square" stroke-linejoin="miter" stroke-width="0.5" stroke="#262626" points="295.548,103.631 371.59,103.631" stroke-dasharray="16,0"/>
   <polyline fill="none" stroke-linecap="square" stroke-linejoin="miter" stroke-width="0.5" stroke="#262626" points="295.548,31.6045 371.59,31.6045" stroke-dasharray="16,0"/>
   <polyline fill="none" stroke-linecap="square" stroke-linejoin="miter" stroke-width="0.5" stroke="#262626" points="295.548,103.631 295.548,31.6045" stroke-dasharray="16,0"/>
   <polyline fill="none" stroke-linecap="square" stroke-linejoin="miter" stroke-width="0.5" stroke="#262626" points="371.59,103.631 371.59,31.6045" stroke-dasharray="16,0"/>
   <polyline fill="none" stroke-linecap="butt" stroke-linejoin="round" stroke-width="3" stroke="#0071bc" points="299.553,42.1097 319.579,42.1097"/>
   <g font-size="12.6" font-family="FreeSans" font-weight="normal" xml:space="preserve" font-style="normal" transform="translate(323.585,48.6097) rotate(-0,-0,-6.5)">
    <text y="-3" fill="rgb(0,0,0)" x="0 7 10 17 20 ">p = 0</text>
   </g>
   <polyline fill="none" stroke-linecap="butt" stroke-linejoin="round" stroke-width="3" stroke="#d85218" points="299.553,59.115 319.579,59.115"/>
   <g font-size="12.6" font-family="FreeSans" font-weight="normal" xml:space="preserve" font-style="normal" transform="translate(323.585,65.615) rotate(-0,-0,-6.5)">
    <text y="-3" fill="rgb(0,0,0)" x="0 7 10 17 20 27 30 ">p = 0.5</text>
   </g>
   <polyline fill="none" stroke-linecap="butt" stroke-linejoin="round" stroke-width="3" stroke="#ecb01f" points="299.553,76.1203 319.579,76.1203"/>
   <g font-size="12.6" font-family="FreeSans" font-weight="normal" xml:space="preserve" font-style="normal" transform="translate(323.585,82.6203) rotate(-0,-0,-6.5)">
    <text y="-3" fill="rgb(0,0,0)" x="0 7 10 17 20 27 30 ">p = 0.9</text>
   </g>
   <polyline fill="none" stroke-linecap="butt" stroke-linejoin="round" stroke-width="3" stroke="#7d2e8d" points="299.553,93.1255 319.579,93.1255"/>
   <g font-size="12.6" font-family="FreeSans" font-weight="normal" xml:space="preserve" font-style="normal" transform="translate(323.585,99.6255) rotate(-0,-0,-6.5)">
    <text y="-3" fill="rgb(0,0,0)" x="0 7 10 17 20 27 30 37 ">p = 0.99</text>
   </g>
  </g>
 </g>
</svg>
